<svg width="657" height="225" viewBox="0 0 657 225" fill="none" xmlns="http://www.w3.org/2000/svg">
<path d="M97.072 151.768V151.512V151.768ZM100.144 145.112C100.144 144.941 100.059 144.856 99.888 144.856C100.059 144.856 100.144 144.941 100.144 145.112ZM90.416 162.008C90.416 162.179 90.3307 162.264 90.16 162.264L90.416 162.008ZM160.56 100.056C160.901 100.056 161.072 100.568 161.072 101.592C161.072 102.445 160.133 103.64 158.256 105.176C156.549 106.712 155.184 107.48 154.16 107.48C153.307 107.48 152.368 107.395 151.344 107.224C150.491 106.883 149.637 106.712 148.784 106.712C143.664 106.712 139.141 107.651 135.216 109.528C131.461 111.235 126.512 114.221 120.368 118.488C120.027 119 119.6 119.939 119.088 121.304C118.747 122.669 118.235 124.12 117.552 125.656C117.04 127.192 116.443 128.557 115.76 129.752C115.077 130.776 114.395 131.288 113.712 131.288C113.371 131.288 112.859 131.203 112.176 131.032C111.664 130.861 111.237 130.776 110.896 130.776C110.555 130.776 109.787 131.288 108.592 132.312C107.397 133.165 106.117 134.275 104.752 135.64C103.387 136.835 102.107 138.2 100.912 139.736C99.888 141.101 99.376 142.381 99.376 143.576C99.376 144.259 99.5467 144.685 99.888 144.856C98.864 147.757 97.6693 150.573 96.304 153.304C94.9387 156.035 92.8907 159.021 90.16 162.264H90.416C89.904 162.947 89.2213 163.715 88.368 164.568C87.6853 165.251 87.344 165.848 87.344 166.36C87.344 167.384 87.7707 167.896 88.624 167.896C89.3067 167.725 89.9893 167.555 90.672 167.384C91.3547 167.043 92.0373 166.872 92.72 166.872C93.0613 166.872 93.4027 167.128 93.744 167.64C93.744 168.664 92.72 170.029 90.672 171.736C88.624 173.272 86.32 174.893 83.76 176.6C81.3707 178.307 79.152 179.757 77.104 180.952C75.056 182.147 74.032 182.744 74.032 182.744C73.008 182.744 72.1547 182.403 71.472 181.72C70.7893 181.037 70.0213 180.696 69.168 180.696C67.8027 181.037 66.1813 181.891 64.304 183.256C62.4267 184.621 60.1227 185.987 57.392 187.352C54.832 188.888 51.8453 190.253 48.432 191.448C45.0187 192.643 41.008 193.24 36.4 193.24C32.304 193.24 28.8053 191.704 25.904 188.632C23.1733 185.56 21.808 181.464 21.808 176.344C21.808 174.637 22.4053 172.931 23.6 171.224C24.7947 169.517 26.16 167.896 27.696 166.36C29.232 164.824 30.768 163.373 32.304 162.008C33.84 160.472 34.864 159.021 35.376 157.656C36.0587 155.949 37.168 154.072 38.704 152.024C40.4107 149.976 42.2027 147.928 44.08 145.88C46.128 143.832 48.2613 141.869 50.48 139.992C52.8693 138.115 55.088 136.493 57.136 135.128C59.696 133.421 62.4267 131.8 65.328 130.264C68.2293 128.557 70.704 126.595 72.752 124.376C73.6053 123.523 74.6293 122.84 75.824 122.328C77.1893 121.816 78.5547 121.304 79.92 120.792C81.456 120.28 82.8213 119.683 84.016 119C85.2107 118.317 86.064 117.464 86.576 116.44C89.136 115.075 91.3547 113.795 93.232 112.6C95.1093 111.405 96.048 109.101 96.048 105.688C96.048 103.981 95.6213 102.104 94.768 100.056C93.9147 98.008 92.2933 96.984 89.904 96.984C88.5387 96.984 87.2587 97.0693 86.064 97.24C84.8693 97.4107 83.5893 97.496 82.224 97.496C81.0293 97.496 80.0907 97.4107 79.408 97.24C78.2133 97.9227 76.9333 98.3493 75.568 98.52C74.3733 98.6907 73.0933 98.8613 71.728 99.032C70.5333 99.2027 69.3387 99.4587 68.144 99.8C66.9493 99.9707 65.84 100.397 64.816 101.08C61.744 102.787 58.416 104.579 54.832 106.456C51.4187 108.163 47.92 109.784 44.336 111.32C40.9227 112.685 37.5093 113.88 34.096 114.904C30.8533 115.757 27.8667 116.184 25.136 116.184C20.6987 115.843 16.7733 115.245 13.36 114.392C10.4587 113.539 7.728 112.344 5.168 110.808C2.77867 109.101 1.584 106.797 1.584 103.896C1.584 103.555 1.584 103.128 1.584 102.616C1.75467 102.104 1.84 101.677 1.84 101.336C1.84 99.9707 1.584 98.6907 1.072 97.496C0.730667 96.1307 0.56 94.5947 0.56 92.888C0.56 91.5227 0.816 90.4133 1.328 89.56C2.01067 88.536 2.69333 87.6827 3.376 87C4.05867 86.1467 4.656 85.2933 5.168 84.44C5.85067 83.5867 6.27733 82.4773 6.448 81.112C6.448 77.1867 7.38667 73.8587 9.264 71.128C11.1413 68.3973 13.5307 65.8373 16.432 63.448C17.7973 62.5947 18.9067 61.144 19.76 59.096C20.272 58.072 20.9547 57.1333 21.808 56.28C22.832 55.4267 23.7707 54.6587 24.624 53.976C25.648 53.1227 26.5013 52.3547 27.184 51.672C28.0373 50.9893 28.464 50.2213 28.464 49.368C28.464 49.1973 28.2933 48.6 27.952 47.576C28.2933 47.064 28.5493 46.552 28.72 46.04C29.0613 45.3573 29.488 44.8453 30 44.504C32.7307 42.968 35.376 41.0907 37.936 38.872C40.496 36.6533 42.9707 34.4347 45.36 32.216C47.92 29.9973 50.3947 27.9493 52.784 26.072C55.1733 24.024 57.5627 22.3173 59.952 20.952C60.976 20.44 62.1707 19.672 63.536 18.648C65.072 17.4533 66.4373 16.344 67.632 15.32C68.9973 14.1253 70.2773 13.1013 71.472 12.248C72.6667 11.3947 73.52 10.968 74.032 10.968C76.2507 10.7973 78.0427 10.1147 79.408 8.92C80.7733 7.72533 82.224 6.53066 83.76 5.336C84.6133 4.48266 85.9787 3.62932 87.856 2.77599C89.7333 1.92265 91.3547 1.06932 92.72 0.215988C94.4267 0.898656 96.3893 1.92266 98.608 3.28799C100.997 4.48266 103.131 5.93332 105.008 7.63998C107.056 9.17598 108.763 10.7973 110.128 12.504C111.493 14.2107 112.176 15.6613 112.176 16.856C112.176 18.2213 111.664 19.0747 110.64 19.416C109.616 19.5867 108.592 19.672 107.568 19.672C106.715 19.672 105.861 19.5867 105.008 19.416C104.325 19.0747 103.557 18.904 102.704 18.904C97.584 18.904 92.2933 20.2693 86.832 23C81.3707 25.7307 76.592 28.632 72.496 31.704C70.6187 33.0693 68.8267 34.4347 67.12 35.8C65.4133 37.1653 63.4507 38.2747 61.232 39.128C61.232 39.128 60.6347 39.64 59.44 40.664C58.2453 41.5173 56.88 42.6267 55.344 43.992C53.808 45.1867 52.1867 46.4667 50.48 47.832C48.944 49.1973 47.8347 50.392 47.152 51.416C45.7867 53.1227 44.336 54.5733 42.8 55.768C41.264 56.9627 39.728 58.2427 38.192 59.608C36.656 60.8027 35.2053 62.0827 33.84 63.448C32.4747 64.8133 31.4507 66.4347 30.768 68.312L31.024 68.568C30.8533 68.568 30.6827 68.568 30.512 68.568C30.3413 68.3973 30.1707 68.312 30 68.312C29.488 69.1653 28.8907 69.9333 28.208 70.616C27.696 71.2987 27.184 71.9813 26.672 72.664C26.8427 73.176 27.0133 73.688 27.184 74.2C27.3547 74.712 27.44 75.224 27.44 75.736C27.44 76.4187 27.0987 77.016 26.416 77.528C25.904 78.04 25.3067 78.6373 24.624 79.32C24.112 79.832 23.5147 80.4293 22.832 81.112C22.32 81.7947 22.064 82.7333 22.064 83.928C22.064 85.2933 21.4667 86.488 20.272 87.512C19.0773 88.536 18.48 89.6453 18.48 90.84C18.48 92.0347 18.8213 93.5707 19.504 95.448C20.3573 97.3253 21.296 98.264 22.32 98.264C27.0987 97.24 32.048 95.96 37.168 94.424C42.288 92.7173 47.4933 91.0107 52.784 89.304C58.0747 87.5973 63.3653 86.1467 68.656 84.952C73.9467 83.7573 79.3227 83.16 84.784 83.16C86.32 83.16 87.7707 83.2453 89.136 83.416C90.672 83.416 92.208 83.5013 93.744 83.672C95.28 83.672 96.816 84.184 98.352 85.208C100.059 86.232 101.851 86.9147 103.728 87.256C104.411 87.4267 104.923 87.768 105.264 88.28C105.776 88.6213 106.203 89.048 106.544 89.56C107.056 90.072 107.483 90.584 107.824 91.096C108.165 91.4373 108.677 91.608 109.36 91.608C111.067 91.7787 112.347 92.2907 113.2 93.144C114.224 93.9973 115.077 94.936 115.76 95.96C116.613 96.984 117.467 97.9227 118.32 98.776C119.344 99.6293 120.795 100.056 122.672 100.056C126.597 100.056 130.779 99.6293 135.216 98.776C139.653 97.752 143.835 97.24 147.76 97.24C149.467 97.24 151.429 97.5813 153.648 98.264C156.037 98.776 158.341 99.3733 160.56 100.056ZM77.36 169.432C77.36 169.261 77.2747 169.176 77.104 169.176L76.848 169.432H76.592H76.848C76.6773 169.432 76.592 169.517 76.592 169.688L76.848 169.944C77.0187 169.944 77.104 169.773 77.104 169.432H77.36ZM84.528 148.184C87.2587 145.624 88.624 142.381 88.624 138.456C88.624 137.603 88.5387 136.835 88.368 136.152C88.1973 135.299 87.6 134.872 86.576 134.872C84.6987 134.872 82.5653 135.896 80.176 137.944C77.7867 139.992 75.6533 141.357 73.776 142.04C72.752 143.064 71.728 144.003 70.704 144.856C69.8507 145.709 68.912 146.563 67.888 147.416C67.0347 148.269 66.1813 148.867 65.328 149.208C64.816 149.549 63.1947 150.744 60.464 152.792C57.904 154.669 55.088 157.059 52.016 159.96C49.1147 162.861 46.4693 166.019 44.08 169.432C41.8613 172.675 40.752 175.661 40.752 178.392C40.752 179.757 41.008 181.037 41.52 182.232C42.7147 181.891 43.824 181.464 44.848 180.952C46.0427 180.269 47.3227 179.928 48.688 179.928C49.0293 179.928 49.3707 180.013 49.712 180.184C50.224 180.355 50.6507 180.44 50.992 180.44H50.48C50.48 180.269 51.1627 179.843 52.528 179.16C54.064 178.477 55.7707 177.709 57.648 176.856C59.5253 176.003 61.232 175.149 62.768 174.296C64.4747 173.272 65.4987 172.248 65.84 171.224C66.1813 170.029 66.864 168.835 67.888 167.64C69.0827 166.275 70.2773 164.995 71.472 163.8C72.8373 162.605 73.9467 161.581 74.8 160.728C75.824 159.704 76.336 158.936 76.336 158.424C76.336 156.547 77.2747 154.755 79.152 153.048C81.2 151.171 82.992 149.549 84.528 148.184ZM90.16 156.12C90.5013 156.12 90.672 155.949 90.672 155.608L90.416 155.352C90.2453 155.352 90.0747 155.267 89.904 155.096H89.648C89.4773 155.096 89.3067 155.181 89.136 155.352C89.3067 155.693 89.392 155.949 89.392 156.12C89.392 156.291 89.5627 156.376 89.904 156.376L90.16 156.12ZM111.408 125.912C111.579 125.912 111.664 125.741 111.664 125.4H111.92H111.408H111.152V125.656L111.408 125.912ZM147.402 92.632C148.767 91.096 149.962 89.4747 150.986 87.768C152.181 86.0613 153.119 84.184 153.802 82.136C154.314 80.4293 155.167 78.9787 156.362 77.784C157.727 76.4187 159.093 75.224 160.458 74.2C161.823 73.0053 163.018 71.896 164.042 70.872C165.237 69.6773 166.09 68.3973 166.602 67.032C168.479 65.1547 170.357 63.1067 172.234 60.888C174.111 58.6693 176.501 56.9627 179.402 55.768C181.109 55.0853 182.559 54.0613 183.754 52.696C184.949 51.3307 186.57 50.648 188.618 50.648C191.861 50.648 195.53 51.2453 199.626 52.44C203.722 53.6347 207.562 55.256 211.146 57.304C214.73 59.352 217.717 61.8267 220.106 64.728C222.495 67.6293 223.69 70.7867 223.69 74.2C223.69 74.5413 223.605 74.968 223.434 75.48C223.434 75.992 223.434 76.4187 223.434 76.76C223.434 77.6133 223.434 78.4667 223.434 79.32C223.605 80.0027 223.69 80.7707 223.69 81.624C223.69 84.8667 222.495 87.3413 220.106 89.048C218.741 89.7307 217.717 90.9253 217.034 92.632C216.351 94.168 215.498 95.5333 214.474 96.728C213.621 97.5813 212.767 98.4347 211.914 99.288C211.061 100.141 210.293 101.251 209.61 102.616C208.927 103.981 207.562 105.773 205.514 107.992C203.466 110.04 200.991 112.088 198.09 114.136C195.189 116.013 191.946 117.72 188.362 119.256C184.949 120.621 181.45 121.304 177.866 121.304C175.989 121.304 174.197 121.133 172.49 120.792C170.783 120.451 168.991 120.28 167.114 120.28C164.725 120.28 163.274 121.645 162.762 124.376C162.25 127.107 161.994 129.496 161.994 131.544C161.994 134.445 162.079 137.773 162.25 141.528C162.421 145.283 162.847 148.867 163.53 152.28C164.213 155.693 165.151 158.595 166.346 160.984C167.711 163.373 169.589 164.568 171.978 164.568C173.855 164.568 175.818 163.971 177.866 162.776C180.085 161.581 181.877 160.387 183.242 159.192C190.239 153.56 197.066 148.013 203.722 142.552C210.549 137.091 217.29 131.373 223.946 125.4C224.629 124.717 225.738 123.608 227.274 122.072C228.981 120.365 230.773 118.659 232.65 116.952C234.698 115.245 236.831 113.795 239.05 112.6C241.269 111.235 243.402 110.552 245.45 110.552C246.303 110.552 247.157 110.808 248.01 111.32C249.034 111.661 249.546 112.344 249.546 113.368C249.546 114.221 249.119 115.075 248.266 115.928C247.413 116.611 246.389 117.293 245.194 117.976C244.17 118.659 243.061 119.341 241.866 120.024C240.842 120.536 239.989 121.048 239.306 121.56C236.575 123.779 234.271 125.827 232.394 127.704C230.517 129.411 228.895 131.032 227.53 132.568C226.165 133.933 225.482 134.957 225.482 135.64C225.482 136.664 225.141 137.944 224.458 139.48C223.775 141.016 222.751 141.784 221.386 141.784C219.509 142.637 217.887 143.917 216.522 145.624C215.157 147.331 213.877 149.123 212.682 151C211.487 152.707 210.293 154.328 209.098 155.864C208.074 157.229 207.05 158.083 206.026 158.424C205.002 158.765 203.295 160.131 200.906 162.52C198.517 164.909 195.957 167.469 193.226 170.2C190.666 172.931 188.191 175.405 185.802 177.624C183.413 179.672 181.706 180.696 180.682 180.696C179.658 180.696 178.805 180.44 178.122 179.928C177.269 180.44 176.415 180.952 175.562 181.464C174.879 181.976 174.111 182.488 173.258 183C168.309 182.488 164.042 181.891 160.458 181.208C156.874 180.525 153.717 178.221 150.986 174.296C150.303 172.76 149.535 171.736 148.682 171.224C147.658 170.712 146.634 169.859 145.61 168.664C144.757 167.299 143.989 166.019 143.306 164.824C142.623 163.459 142.111 162.264 141.77 161.24C141.429 160.045 141.258 159.363 141.258 159.192C141.258 158.68 141.343 158.168 141.514 157.656C141.685 156.973 141.77 156.291 141.77 155.608C141.77 154.413 141.258 153.304 140.234 152.28C139.381 151.256 138.954 150.232 138.954 149.208C138.954 148.867 139.039 148.44 139.21 147.928C139.551 147.416 139.722 146.904 139.722 146.392C139.722 145.539 139.551 144.771 139.21 144.088C138.869 143.235 138.698 142.381 138.698 141.528C138.698 140.845 138.869 140.163 139.21 139.48C139.722 138.797 139.978 138.115 139.978 137.432C139.978 136.579 139.637 135.64 138.954 134.616C138.442 133.592 138.186 132.568 138.186 131.544C138.186 130.349 138.186 128.813 138.186 126.936C138.186 124.888 138.271 122.84 138.442 120.792C138.613 118.744 138.869 116.781 139.21 114.904C139.722 113.027 140.405 111.576 141.258 110.552C142.965 108.333 143.989 105.517 144.33 102.104C144.671 98.52 145.781 95.3627 147.658 92.632C146.975 93.656 146.634 94.5947 146.634 95.448C146.634 95.96 146.805 96.3867 147.146 96.728C147.317 96.5573 147.487 96.472 147.658 96.472C147.829 96.472 147.914 96.216 147.914 95.704C147.914 95.0213 147.743 93.9973 147.402 92.632ZM171.722 105.432C173.941 105.091 176.842 104.408 180.426 103.384C184.01 102.189 187.423 100.653 190.666 98.776C194.079 96.728 196.981 94.2533 199.37 91.352C201.759 88.28 202.954 84.696 202.954 80.6C202.954 78.3813 202.527 75.9067 201.674 73.176C200.991 70.4453 199.37 69.08 196.81 69.08C192.543 69.08 188.533 70.5307 184.778 73.432C181.194 76.3333 178.037 79.7467 175.306 83.672C172.575 87.4267 170.357 91.1813 168.65 94.936C167.114 98.6907 166.346 101.421 166.346 103.128C166.346 103.981 166.687 104.493 167.37 104.664C168.223 104.835 169.674 105.091 171.722 105.432ZM236.68 142.808C236.68 137.688 237.277 132.739 238.472 127.96C239.837 123.181 240.52 118.317 240.52 113.368C240.52 112.003 240.861 110.211 241.544 107.992C242.227 105.603 243.08 103.128 244.104 100.568C245.128 97.8373 246.237 95.1067 247.432 92.376C248.797 89.6453 250.077 87.1707 251.272 84.952C252.637 82.5627 254.173 80.5147 255.88 78.808C257.587 76.9307 258.867 74.7973 259.72 72.408C260.232 70.7013 261.171 69.5067 262.536 68.824C263.901 68.1413 264.755 66.8613 265.096 64.984C265.267 64.1307 265.693 63.5333 266.376 63.192C267.229 62.8507 268.083 62.5947 268.936 62.424C269.789 62.2533 270.557 62.0827 271.24 61.912C272.093 61.7413 272.691 61.2293 273.032 60.376C273.544 59.1813 274.397 58.072 275.592 57.048C276.787 55.8533 278.067 54.8293 279.432 53.976C280.797 52.952 282.163 52.184 283.528 51.672C284.893 51.16 285.917 50.904 286.6 50.904C291.549 51.7573 296.072 52.8667 300.168 54.232C303.581 55.4267 306.739 56.8773 309.64 58.584C312.541 60.2907 313.992 62.424 313.992 64.984C313.992 66.6907 313.736 69.08 313.224 72.152C312.883 75.0533 312.285 77.9547 311.432 80.856C310.579 83.5867 309.469 86.0613 308.104 88.28C306.739 90.328 305.117 91.352 303.24 91.352C301.363 91.352 299.741 90.328 298.376 88.28C297.181 86.232 296.584 84.2693 296.584 82.392C296.584 80.856 296.669 79.4053 296.84 78.04C297.011 76.504 297.181 75.0533 297.352 73.688C297.352 72.4933 296.755 71.896 295.56 71.896C293 71.896 290.269 72.92 287.368 74.968C284.637 76.8453 281.907 79.32 279.176 82.392C276.445 85.2933 273.885 88.536 271.496 92.12C269.107 95.704 267.059 99.032 265.352 102.104C264.157 107.395 262.621 112.6 260.744 117.72C258.867 122.84 257.928 128.301 257.928 134.104C257.928 136.493 258.099 139.395 258.44 142.808C258.781 146.221 259.293 149.549 259.976 152.792C260.829 155.864 261.768 158.509 262.792 160.728C263.987 162.947 265.437 164.056 267.144 164.056C267.827 164.056 269.619 163.203 272.52 161.496C275.592 159.619 278.92 157.4 282.504 154.84C286.088 152.28 289.501 149.72 292.744 147.16C296.157 144.429 298.632 142.296 300.168 140.76C302.387 138.2 305.203 135.299 308.616 132.056C312.2 128.813 315.784 125.741 319.368 122.84C323.123 119.939 326.792 117.549 330.376 115.672C333.96 113.624 336.947 112.6 339.336 112.6C340.531 112.6 341.555 112.771 342.408 113.112C343.261 113.453 343.688 114.221 343.688 115.416C343.688 116.781 343.005 118.147 341.64 119.512C340.445 120.707 338.995 121.987 337.288 123.352C335.581 124.547 333.875 125.912 332.168 127.448C330.632 128.813 329.523 130.264 328.84 131.8C328.499 131.8 327.133 132.995 324.744 135.384C322.525 137.773 319.965 140.419 317.064 143.32C314.163 146.221 311.347 149.037 308.616 151.768C306.056 154.499 304.264 156.376 303.24 157.4C302.216 158.595 300.168 160.643 297.096 163.544C294.195 166.445 290.867 169.432 287.112 172.504C283.357 175.405 279.517 178.051 275.592 180.44C271.667 182.659 268.168 183.768 265.096 183.768C259.976 183.768 255.88 182.829 252.808 180.952C249.907 179.075 247.603 176.771 245.896 174.04C244.189 171.309 242.824 168.323 241.8 165.08C240.776 161.837 239.581 158.765 238.216 155.864C237.363 153.987 236.936 151.853 236.936 149.464C236.936 147.075 236.851 144.856 236.68 142.808ZM364.13 110.552C363.959 108.333 363.447 107.224 362.594 107.224C362.253 107.224 361.911 107.309 361.57 107.48C361.229 107.48 360.802 107.48 360.29 107.48C359.778 107.48 359.266 106.968 358.754 105.944C358.242 104.92 357.815 103.725 357.474 102.36C357.133 100.995 356.877 99.6293 356.706 98.264C356.535 96.8987 356.45 95.7893 356.45 94.936C356.621 94.936 356.791 94.8507 356.962 94.68C356.962 94.8507 356.877 95.0213 356.706 95.192C356.706 95.192 356.791 95.0213 356.962 94.68C355.767 95.8747 354.829 96.8987 354.146 97.752C353.463 98.4347 353.122 99.288 353.122 100.312C353.122 101.336 353.719 102.616 354.914 104.152C356.109 105.517 356.706 106.797 356.706 107.992C356.706 108.504 356.023 109.528 354.658 111.064C353.463 112.429 352.866 114.307 352.866 116.696C352.866 117.549 352.866 118.488 352.866 119.512C353.037 120.365 353.122 121.219 353.122 122.072C353.122 123.267 352.951 124.376 352.61 125.4C352.439 126.253 351.842 126.936 350.818 127.448V127.704C350.818 126.68 350.562 125.997 350.05 125.656C349.709 125.315 349.197 125.059 348.514 124.888C348.002 124.717 347.49 124.547 346.978 124.376C346.637 124.205 346.466 123.864 346.466 123.352C346.466 122.499 347.063 121.901 348.258 121.56C349.453 121.048 350.05 120.28 350.05 119.256C350.05 118.403 349.623 117.635 348.77 116.952C347.917 116.269 347.49 115.672 347.49 115.16C347.49 114.819 347.49 114.477 347.49 114.136C347.661 113.795 347.746 113.453 347.746 113.112C347.746 111.747 347.575 110.467 347.234 109.272C347.063 108.077 346.978 106.797 346.978 105.432C346.978 104.579 347.063 103.64 347.234 102.616C347.575 101.592 347.746 100.568 347.746 99.544C347.746 98.8613 347.661 98.1787 347.49 97.496C347.49 96.6427 347.49 95.7893 347.49 94.936C347.49 92.5467 347.661 90.1573 348.002 87.768C348.514 85.208 349.453 82.7333 350.818 80.344C351.159 79.6613 351.33 78.9787 351.33 78.296C351.33 77.4427 351.074 76.76 350.562 76.248C350.05 75.5653 349.794 74.7973 349.794 73.944C349.794 73.432 349.794 72.92 349.794 72.408C349.965 71.896 350.05 71.384 350.05 70.872C350.05 68.9947 349.026 68.056 346.978 68.056C346.125 68.056 345.527 68.2267 345.186 68.568C345.015 68.9093 344.759 69.2507 344.418 69.592C342.541 69.592 340.919 70.0187 339.554 70.872C338.189 71.5547 336.738 72.408 335.202 73.432C333.837 74.2853 332.13 75.1387 330.082 75.992C328.034 76.6747 325.389 77.016 322.146 77.016C321.463 77.016 320.183 76.8453 318.306 76.504C316.429 76.1627 314.551 75.6507 312.674 74.968C310.797 74.1147 309.09 73.0907 307.554 71.896C306.018 70.5307 305.25 68.9093 305.25 67.032C305.25 66.3493 305.591 65.8373 306.274 65.496C307.127 64.984 308.066 64.6427 309.09 64.472C310.285 64.3013 311.394 64.216 312.418 64.216C313.613 64.0453 314.637 63.8747 315.49 63.704C318.221 63.192 320.866 62.168 323.426 60.632C325.986 58.9253 327.949 58.072 329.314 58.072C329.485 58.072 330.082 57.7307 331.106 57.048C332.13 56.1947 333.41 55.256 334.946 54.232C336.482 53.208 338.274 52.2693 340.322 51.416C342.541 50.392 344.93 49.7093 347.49 49.368C349.197 49.0267 350.477 47.832 351.33 45.784C352.354 43.736 353.122 41.3467 353.634 38.616C354.146 35.7147 354.487 32.728 354.658 29.656C354.829 26.584 354.914 23.8533 354.914 21.464C354.914 20.2693 354.829 19.16 354.658 18.136C354.658 16.9413 354.573 15.7467 354.402 14.552C355.938 11.6507 357.474 9.34666 359.01 7.63998C360.546 5.76265 363.021 4.82399 366.434 4.82399C370.701 4.82399 373.517 6.27466 374.882 9.17599C376.247 12.0773 376.93 16.2587 376.93 21.72C376.93 23.5973 376.759 25.304 376.418 26.84C376.247 28.376 375.735 29.4 374.882 29.912C375.053 29.7413 375.309 29.656 375.65 29.656C375.65 29.656 375.565 29.8267 375.394 30.168C375.394 29.9973 375.309 29.912 375.138 29.912C375.138 29.7413 375.138 29.5707 375.138 29.4C376.333 30.2533 377.015 31.3627 377.186 32.728C377.357 33.9227 378.125 34.776 379.49 35.288C381.538 34.4347 384.61 33.1547 388.706 31.448C392.973 29.7413 397.069 28.888 400.994 28.888C401.847 28.888 402.786 28.5467 403.81 27.864C404.834 27.1813 405.858 26.4987 406.882 25.816C407.906 24.9627 408.845 24.1947 409.698 23.512C410.722 22.8293 411.661 22.488 412.514 22.488C413.367 22.488 414.05 23.0853 414.562 24.28C415.245 25.304 416.013 25.816 416.866 25.816C417.378 25.816 417.805 25.56 418.146 25.048C418.487 24.536 418.743 24.024 418.914 23.512C419.255 23 419.682 22.488 420.194 21.976C420.706 21.464 421.389 21.208 422.242 21.208C424.802 21.208 426.594 21.72 427.618 22.744C428.642 23.768 429.325 24.9627 429.666 26.328C430.007 27.5227 430.178 28.632 430.178 29.656C430.349 30.68 430.775 31.192 431.458 31.192C431.799 31.192 432.141 30.936 432.482 30.424C432.994 31.448 433.25 32.3013 433.25 32.984C433.25 33.496 432.994 34.0933 432.482 34.776C431.97 35.4587 431.373 36.1413 430.69 36.824C430.007 37.5067 429.325 38.104 428.642 38.616C427.959 39.128 427.533 39.384 427.362 39.384C427.021 39.384 426.338 39.128 425.314 38.616C424.29 38.104 423.437 37.848 422.754 37.848C422.242 37.848 421.559 38.1893 420.706 38.872C420.023 39.384 419.255 39.64 418.402 39.64C418.061 39.64 417.634 39.64 417.122 39.64C416.61 39.4693 416.183 39.384 415.842 39.384C414.647 39.384 413.709 39.64 413.026 40.152C408.93 42.712 405.175 44.3333 401.762 45.016C398.519 45.528 394.765 46.2107 390.498 47.064C390.498 47.064 389.645 47.576 387.938 48.6C386.231 49.4533 384.183 50.5627 381.794 51.928C379.575 53.1227 377.442 54.488 375.394 56.024C373.517 57.3893 372.322 58.584 371.81 59.608C371.981 59.9493 372.066 60.5467 372.066 61.4C372.066 62.2533 371.81 63.192 371.298 64.216C370.957 65.0693 370.786 65.9227 370.786 66.776C370.786 67.288 370.871 67.6293 371.042 67.8C370.701 71.0427 370.359 74.2 370.018 77.272C369.677 80.344 369.335 83.5013 368.994 86.744C368.994 88.6213 368.397 90.4133 367.202 92.12C366.178 93.656 365.666 95.3627 365.666 97.24C365.666 100.312 365.495 102.616 365.154 104.152C364.983 105.688 364.642 107.821 364.13 110.552ZM357.986 88.28C357.986 88.1093 357.986 88.024 357.986 88.024C358.157 87.8533 358.242 87.6827 358.242 87.512C358.242 87.3413 358.071 87.256 357.73 87.256C357.559 87.256 357.474 87.512 357.474 88.024C357.474 88.024 357.645 88.1093 357.986 88.28ZM359.266 77.016C359.266 77.016 359.181 77.1867 359.01 77.528C359.01 78.04 359.181 78.296 359.522 78.296L360.034 77.784C360.034 77.272 359.778 77.016 359.266 77.016ZM359.01 123.608C359.351 123.949 359.778 124.12 360.29 124.12C360.973 124.12 361.57 124.035 362.082 123.864C362.594 123.693 363.191 123.608 363.874 123.608C363.362 125.315 362.765 126.851 362.082 128.216C361.399 129.411 361.058 130.776 361.058 132.312C361.058 132.995 361.143 133.677 361.314 134.36C361.485 135.043 361.57 135.725 361.57 136.408C361.57 142.381 361.143 148.099 360.29 153.56C359.607 159.021 359.266 164.568 359.266 170.2C359.266 171.565 359.693 172.675 360.546 173.528C361.57 174.381 362.082 175.491 362.082 176.856C362.082 177.709 361.57 178.477 360.546 179.16C359.522 179.843 359.01 180.867 359.01 182.232C359.01 182.573 359.095 183.171 359.266 184.024C359.437 184.877 359.778 185.475 360.29 185.816C361.655 186.669 362.338 187.864 362.338 189.4C362.509 190.936 362.594 192.557 362.594 194.264C362.594 195.971 362.765 197.421 363.106 198.616C363.618 199.811 364.898 200.408 366.946 200.408C367.97 200.408 369.165 199.555 370.53 197.848C372.066 196.312 373.602 194.349 375.138 191.96C376.845 189.741 378.381 187.352 379.746 184.792C381.282 182.403 382.562 180.269 383.586 178.392C386.487 172.931 389.645 167.811 393.058 163.032C396.642 158.253 400.226 153.304 403.81 148.184C404.151 149.208 404.407 150.061 404.578 150.744C404.749 151.256 404.834 151.768 404.834 152.28C404.834 153.133 404.578 153.987 404.066 154.84C403.554 155.523 402.615 156.547 401.25 157.912C400.738 160.984 400.482 164.056 400.482 167.128C400.482 170.029 400.738 172.931 401.25 175.832C401.762 178.733 402.018 181.464 402.018 184.024C402.018 186.072 401.677 187.693 400.994 188.888C400.482 190.083 399.799 191.021 398.946 191.704C398.263 192.387 397.495 193.069 396.642 193.752C395.959 194.435 395.533 195.288 395.362 196.312C395.191 197.336 395.106 198.701 395.106 200.408C395.277 202.115 395.021 202.968 394.338 202.968C393.997 202.968 393.655 202.797 393.314 202.456C392.973 202.285 392.717 202.2 392.546 202.2C390.498 202.2 389.218 202.371 388.706 202.712C388.194 203.053 387.767 204.163 387.426 206.04C387.426 207.405 386.829 208.259 385.634 208.6C384.61 208.941 383.927 209.795 383.586 211.16C383.586 211.501 383.159 212.099 382.306 212.952C381.453 213.805 380.514 214.659 379.49 215.512C378.637 216.365 377.783 217.133 376.93 217.816C376.077 218.669 375.565 219.096 375.394 219.096C375.053 219.096 374.797 219.011 374.626 218.84C374.455 218.84 374.199 218.84 373.858 218.84C373.517 218.84 373.005 218.925 372.322 219.096C371.81 219.267 371.554 219.523 371.554 219.864C371.213 220.888 370.53 221.656 369.506 222.168C368.653 222.851 367.714 223.363 366.69 223.704C365.666 224.045 364.642 224.301 363.618 224.472C362.765 224.643 362.082 224.728 361.57 224.728C358.157 224.728 355.17 223.533 352.61 221.144C350.05 218.925 348.77 217.048 348.77 215.512C348.77 214.829 348.855 214.232 349.026 213.72C349.026 212.355 348.685 210.989 348.002 209.624C347.49 208.259 346.807 206.808 345.954 205.272C345.271 203.907 344.589 202.541 343.906 201.176C343.394 199.981 343.138 198.872 343.138 197.848C343.138 197.507 343.138 197.08 343.138 196.568C343.309 196.056 343.394 195.629 343.394 195.288C343.394 195.117 343.223 194.52 342.882 193.496C342.541 192.643 342.199 191.619 341.858 190.424C341.517 189.229 341.175 188.035 340.834 186.84C340.493 185.816 340.322 184.877 340.322 184.024C340.322 183.853 340.578 183.256 341.09 182.232C341.773 181.037 342.455 179.757 343.138 178.392C343.821 177.027 344.418 175.576 344.93 174.04C345.613 172.504 345.954 171.139 345.954 169.944C345.954 169.432 345.869 168.92 345.698 168.408C345.698 167.896 345.698 167.384 345.698 166.872C345.698 164.995 346.21 163.373 347.234 162.008C348.429 160.472 349.026 159.021 349.026 157.656C348.685 157.315 348.429 156.973 348.258 156.632C348.087 156.12 347.746 155.864 347.234 155.864C346.722 155.864 346.21 156.291 345.698 157.144C345.357 157.997 344.93 158.936 344.418 159.96C344.077 160.813 343.65 161.667 343.138 162.52C342.797 163.373 342.37 163.8 341.858 163.8C341.517 163.8 341.09 163.629 340.578 163.288C340.237 162.947 340.066 162.605 340.066 162.264C340.578 161.411 340.919 160.301 341.09 158.936C341.431 157.571 341.687 156.291 341.858 155.096C342.199 153.731 342.541 152.621 342.882 151.768C343.223 150.744 343.735 150.232 344.418 150.232C344.93 150.232 345.442 150.573 345.954 151.256C346.466 151.768 347.149 152.024 348.002 152.024C348.514 152.024 349.197 151.683 350.05 151C350.903 150.147 351.33 149.123 351.33 147.928C351.33 147.075 350.477 146.307 348.77 145.624H348.514C349.709 143.917 350.306 142.04 350.306 139.992C350.306 139.48 350.221 139.053 350.05 138.712C350.05 138.2 350.05 137.688 350.05 137.176C350.05 136.664 350.05 136.152 350.05 135.64C350.221 135.128 350.647 134.701 351.33 134.36C351.671 134.36 351.927 134.957 352.098 136.152C352.269 137.176 352.354 138.627 352.354 140.504C352.354 141.528 352.269 142.637 352.098 143.832C352.098 144.856 352.098 146.051 352.098 147.416C352.098 150.659 352.269 153.645 352.61 156.376C353.122 158.936 354.061 160.216 355.426 160.216C355.767 160.216 356.109 159.789 356.45 158.936C356.791 158.083 356.962 157.4 356.962 156.888C356.962 156.547 356.877 156.291 356.706 156.12C356.706 155.779 356.706 155.437 356.706 155.096C356.706 153.731 356.962 152.536 357.474 151.512C358.157 150.488 358.498 149.379 358.498 148.184C358.498 146.819 358.071 145.624 357.218 144.6C356.365 143.405 355.938 142.381 355.938 141.528C355.938 141.016 356.45 139.992 357.474 138.456C358.498 136.749 359.01 135.043 359.01 133.336C359.01 132.824 358.925 132.312 358.754 131.8C358.583 131.288 358.498 130.776 358.498 130.264C358.498 129.069 358.583 127.96 358.754 126.936C359.095 125.741 359.266 124.547 359.266 123.352L359.01 123.608ZM352.354 175.064C352.354 175.576 352.525 175.832 352.866 175.832C354.402 175.832 355.426 175.064 355.938 173.528C356.621 171.821 356.962 170.456 356.962 169.432C356.962 168.749 356.791 167.725 356.45 166.36C356.279 164.995 355.938 164.312 355.426 164.312C354.061 164.995 353.378 165.933 353.378 167.128C353.378 168.152 353.293 169.261 353.122 170.456L352.354 175.064ZM390.754 197.592C391.607 197.592 392.119 197.507 392.29 197.336C392.461 197.336 392.546 196.824 392.546 195.8C392.546 194.435 391.778 193.752 390.242 193.752C389.389 193.752 388.706 194.349 388.194 195.544C388.194 196.568 388.45 197.08 388.962 197.08C389.645 197.08 390.242 197.251 390.754 197.592ZM393.058 187.096C392.717 186.755 392.29 186.328 391.778 185.816C391.437 185.475 391.095 185.304 390.754 185.304C389.901 185.304 389.474 185.901 389.474 187.096C389.474 187.437 389.986 187.949 391.01 188.632C391.693 188.632 392.375 188.12 393.058 187.096ZM398.946 172.248C398.946 171.053 398.775 170.456 398.434 170.456C397.922 170.456 397.666 170.712 397.666 171.224C397.666 172.077 397.922 172.504 398.434 172.504C398.605 172.504 398.69 172.504 398.69 172.504C398.69 172.333 398.775 172.248 398.946 172.248ZM385.378 202.968C385.378 202.797 385.207 202.541 384.866 202.2C384.695 202.2 384.439 202.371 384.098 202.712C384.098 203.053 384.098 203.395 384.098 203.736C384.098 204.077 384.269 204.248 384.61 204.248C385.122 204.248 385.378 203.821 385.378 202.968ZM391.778 177.112C392.119 177.453 392.29 177.624 392.29 177.624C392.461 177.283 392.546 177.112 392.546 177.112C392.717 176.941 392.887 176.685 393.058 176.344C393.058 176.173 392.973 176.088 392.802 176.088C392.631 175.917 392.546 175.747 392.546 175.576L391.778 177.112ZM363.874 110.296C364.727 112.003 365.154 113.368 365.154 114.392C365.154 115.587 364.813 116.611 364.13 117.464C363.447 118.147 362.679 118.829 361.826 119.512C361.143 120.024 360.461 120.621 359.778 121.304C359.266 121.987 359.01 122.755 359.01 123.608L359.266 123.352C358.754 123.693 358.242 124.12 357.73 124.632C357.218 124.973 356.791 125.144 356.45 125.144C355.426 125.144 354.914 124.717 354.914 123.864C354.914 122.328 354.914 120.792 354.914 119.256C354.914 117.72 355.255 116.269 355.938 114.904C356.279 115.416 356.621 115.843 356.962 116.184C357.474 116.355 357.901 116.611 358.242 116.952C358.754 114.051 359.437 112.429 360.29 112.088C361.143 111.576 362.423 111.064 364.13 110.552L363.874 110.296ZM415.33 127.192C416.354 126.509 417.122 125.656 417.634 124.632C418.317 123.437 418.999 122.328 419.682 121.304C420.365 120.109 421.047 119.171 421.73 118.488C422.413 117.635 423.437 117.208 424.802 117.208C425.485 117.208 425.826 117.464 425.826 117.976C425.826 120.024 425.229 122.499 424.034 125.4C423.01 128.131 421.559 129.496 419.682 129.496C418.829 129.496 418.061 129.24 417.378 128.728C416.695 128.045 416.013 127.533 415.33 127.192ZM472.162 75.992C471.65 75.992 471.138 75.9067 470.626 75.736C470.114 75.3947 469.858 74.7973 469.858 73.944C469.858 72.0667 470.626 70.616 472.162 69.592C473.869 68.3973 475.661 67.7147 477.538 67.544C477.709 67.544 477.965 67.6293 478.306 67.8C478.647 67.9707 478.818 68.2267 478.818 68.568C478.818 71.4693 478.391 73.2613 477.538 73.944C476.685 74.456 474.893 75.1387 472.162 75.992ZM437.09 106.2C436.407 105.517 436.066 104.664 436.066 103.64C436.066 103.128 436.322 102.445 436.834 101.592C437.346 100.739 438.029 100.312 438.882 100.312C440.077 100.312 440.674 100.909 440.674 102.104C440.674 102.616 440.162 103.469 439.138 104.664C438.285 105.688 437.602 106.2 437.09 106.2ZM343.906 135.64C344.247 136.493 344.589 137.091 344.93 137.432C345.271 137.773 345.442 138.285 345.442 138.968C345.442 139.651 345.186 140.077 344.674 140.248C344.162 140.248 343.906 139.907 343.906 139.224C343.906 138.371 343.906 137.176 343.906 135.64ZM429.154 113.88C428.813 113.197 428.642 112.685 428.642 112.344C428.813 111.832 429.154 111.576 429.666 111.576C430.519 111.576 430.946 111.832 430.946 112.344C430.946 112.685 430.861 112.941 430.69 113.112L429.154 113.88ZM409.698 141.784C411.063 141.784 411.746 142.125 411.746 142.808C411.746 143.661 411.149 144.088 409.954 144.088C408.589 144.088 407.906 143.747 407.906 143.064C407.906 142.211 408.503 141.784 409.698 141.784ZM455.01 84.952C454.839 84.6107 454.669 84.3547 454.498 84.184C454.327 84.0133 454.242 83.8427 454.242 83.672C454.242 82.8187 454.669 82.392 455.522 82.392C456.205 82.392 456.546 82.8187 456.546 83.672C456.546 84.0133 456.461 84.3547 456.29 84.696C456.119 85.0373 455.863 85.208 455.522 85.208C455.351 85.208 455.266 85.208 455.266 85.208C455.266 85.0373 455.181 84.952 455.01 84.952ZM448.866 89.304C449.719 88.4507 450.317 88.024 450.658 88.024C451.341 88.024 451.938 88.3653 452.45 89.048C452.45 89.7307 452.109 90.072 451.426 90.072C451.085 90.072 450.658 89.9867 450.146 89.816C449.634 89.4747 449.207 89.304 448.866 89.304ZM448.61 88.792C448.439 89.304 448.269 89.9867 448.098 90.84C447.927 91.6933 447.586 92.12 447.074 92.12C446.562 92.12 446.306 91.9493 446.306 91.608C446.306 91.2667 446.562 90.9253 447.074 90.584C447.757 90.072 448.354 89.6453 448.866 89.304L448.61 88.792ZM408.162 152.024C408.162 152.024 407.991 152.195 407.65 152.536C407.65 152.365 407.565 152.28 407.394 152.28C407.394 152.109 407.394 151.939 407.394 151.768C407.394 151.597 407.479 151.512 407.65 151.512C407.821 151.512 407.906 151.427 407.906 151.256C408.077 151.427 408.162 151.683 408.162 152.024ZM348.77 130.264C348.77 131.459 348.258 132.056 347.234 132.056C347.063 132.056 346.893 131.971 346.722 131.8C346.551 131.459 346.295 131.203 345.954 131.032C346.295 130.691 346.722 130.52 347.234 130.52C347.917 130.52 348.429 130.435 348.77 130.264ZM350.818 127.448C350.647 128.131 350.391 128.728 350.05 129.24C349.709 129.581 349.367 130.008 349.026 130.52L348.77 130.264C349.111 129.752 349.453 129.325 349.794 128.984C350.135 128.472 350.477 127.96 350.818 127.448ZM348.77 145.624H348.514H349.026C348.855 145.795 348.685 145.88 348.514 145.88L348.77 145.624ZM567.978 82.136C567.978 81.7947 568.149 81.624 568.49 81.624C569.173 81.624 570.111 82.136 571.306 83.16C572.501 84.0133 573.098 85.0373 573.098 86.232C573.098 87.256 572.33 88.28 570.794 89.304C569.258 90.328 566.442 91.0107 562.346 91.352C557.909 91.6933 553.642 92.7173 549.546 94.424C545.621 96.1307 541.781 97.9227 538.026 99.8C535.637 100.995 533.674 102.104 532.138 103.128C530.602 103.981 529.322 104.92 528.298 105.944C527.445 106.797 526.762 107.821 526.25 109.016C525.909 110.211 525.653 111.747 525.482 113.624C525.482 113.965 525.226 115.331 524.714 117.72C524.373 120.109 523.861 122.669 523.178 125.4C522.666 128.131 522.069 130.691 521.386 133.08C520.874 135.299 520.533 136.493 520.362 136.664C518.997 137.517 518.143 138.627 517.802 139.992C517.461 141.187 517.205 142.552 517.034 144.088C517.034 145.453 516.949 146.904 516.778 148.44C516.778 149.976 516.266 151.341 515.242 152.536C514.389 153.731 513.535 155.096 512.682 156.632C511.999 157.997 510.89 159.789 509.354 162.008C507.818 164.056 505.77 166.701 503.21 169.944C500.65 173.016 497.066 176.856 492.458 181.464C492.458 181.464 492.373 181.379 492.202 181.208C491.69 181.208 490.837 181.549 489.642 182.232C488.447 182.744 487.082 183.341 485.546 184.024C484.181 184.877 482.73 185.731 481.194 186.584C479.829 187.437 478.719 188.12 477.866 188.632C475.135 187.779 472.319 187.011 469.418 186.328C466.517 185.645 463.786 184.365 461.226 182.488C457.813 179.757 454.741 176.429 452.01 172.504C449.621 169.091 447.487 164.909 445.61 159.96C443.903 155.011 443.05 149.208 443.05 142.552C443.05 139.992 443.391 137.517 444.074 135.128C444.757 132.739 445.098 130.349 445.098 127.96C445.098 127.107 445.354 125.827 445.866 124.12C446.549 122.243 447.146 120.195 447.658 117.976C448.341 115.757 448.938 113.624 449.45 111.576C450.133 109.357 450.474 107.48 450.474 105.944C450.474 104.579 450.047 102.957 449.194 101.08C448.511 99.2027 447.743 97.24 446.89 95.192C446.037 92.9733 445.183 90.84 444.33 88.792C443.647 86.5733 443.306 84.5253 443.306 82.648C443.306 75.992 443.903 70.7867 445.098 67.032C446.463 63.1067 448.255 60.2053 450.474 58.328C452.863 56.28 455.679 55 458.922 54.488C462.335 53.976 466.175 53.72 470.442 53.72H482.73C486.143 53.72 489.301 54.744 492.202 56.792C495.274 58.6693 498.346 60.12 501.418 61.144C503.125 61.8267 505.002 62.936 507.05 64.472C509.098 66.008 510.975 67.8 512.682 69.848C514.559 71.896 516.181 74.1147 517.546 76.504C519.082 78.8933 520.191 81.2827 520.874 83.672C521.386 85.72 521.983 87.8533 522.666 90.072C523.349 92.12 524.799 93.144 527.018 93.144C527.53 93.144 528.298 92.9733 529.322 92.632C535.807 90.4133 542.122 88.1947 548.266 85.976C554.581 83.7573 561.151 82.4773 567.978 82.136ZM511.402 120.024C511.061 118.317 510.89 116.781 510.89 115.416C510.89 114.051 509.951 113.368 508.074 113.368C503.466 115.075 498.773 116.696 493.994 118.232C489.386 119.768 484.607 120.536 479.658 120.536C477.098 121.219 475.306 123.267 474.282 126.68C473.258 129.923 472.746 133.507 472.746 137.432C472.746 138.115 472.746 138.797 472.746 139.48C472.917 139.992 473.002 140.589 473.002 141.272C473.002 142.979 472.661 144.771 471.978 146.648C471.466 148.525 471.21 150.232 471.21 151.768C471.21 153.133 471.381 154.669 471.722 156.376C472.234 158.083 472.917 159.789 473.77 161.496C474.623 163.203 475.647 164.653 476.842 165.848C478.037 166.872 479.487 167.384 481.194 167.384C484.266 167.384 487.167 165.763 489.898 162.52C492.799 159.277 495.359 155.693 497.578 151.768C499.967 147.672 502.015 143.832 503.722 140.248C505.599 136.664 507.135 134.445 508.33 133.592C509.695 132.739 510.463 130.861 510.634 127.96C510.805 125.059 511.061 122.413 511.402 120.024ZM474.282 62.424C473.77 62.5947 473.173 62.7653 472.49 62.936C471.807 62.936 471.039 63.0213 470.186 63.192C468.138 63.5333 466.346 64.3867 464.81 65.752C463.274 66.9467 461.994 68.4827 460.97 70.36C459.946 72.0667 459.093 74.0293 458.41 76.248C457.898 78.296 457.642 80.2587 457.642 82.136C457.642 83.3307 457.727 84.952 457.898 87C458.239 88.8773 459.263 89.816 460.97 89.816C461.311 89.816 461.482 89.7307 461.482 89.56C463.359 87.6827 464.639 86.4027 465.322 85.72C466.005 84.8667 466.773 84.44 467.626 84.44C468.65 84.44 469.93 84.7813 471.466 85.464C471.807 85.6347 472.917 85.976 474.794 86.488C476.671 87 478.634 87.6827 480.682 88.536C482.73 89.3893 484.522 90.4133 486.058 91.608C487.765 92.8027 488.618 94.168 488.618 95.704C488.618 96.8987 488.021 98.4347 486.826 100.312C485.631 102.189 485.034 103.725 485.034 104.92C485.034 105.944 485.375 106.627 486.058 106.968C486.911 107.139 487.679 107.224 488.362 107.224C490.069 107.053 492.117 106.797 494.506 106.456C496.895 105.944 499.199 105.347 501.418 104.664C503.807 103.811 505.77 102.872 507.306 101.848C509.013 100.653 509.866 99.288 509.866 97.752C509.866 96.8987 509.781 96.1307 509.61 95.448C509.61 94.7653 509.439 93.9973 509.098 93.144C507.562 89.7307 505.685 86.232 503.466 82.648C501.247 78.8933 498.687 75.5653 495.786 72.664C493.055 69.592 489.898 67.1173 486.314 65.24C482.73 63.3627 478.719 62.424 474.282 62.424ZM555.496 124.632C556.179 124.461 556.776 123.864 557.288 122.84C557.971 121.816 558.568 120.707 559.08 119.512C559.592 118.147 560.104 116.867 560.616 115.672C561.128 114.307 561.64 113.368 562.152 112.856C561.981 112.003 561.896 110.808 561.896 109.272C561.896 107.053 562.323 104.835 563.176 102.616C564.2 100.397 564.712 98.6053 564.712 97.24C565.053 92.4613 566.504 87.6827 569.064 82.904C571.624 77.9547 573.928 73.2613 575.976 68.824C576.317 68.1413 576.915 66.9467 577.768 65.24C578.621 63.3627 579.56 61.5707 580.584 59.864C581.608 57.9867 582.632 56.3653 583.656 55C584.68 53.6347 585.448 52.952 585.96 52.952C586.301 52.952 586.557 53.0373 586.728 53.208C587.069 53.208 587.411 53.208 587.752 53.208C589.117 53.208 590.483 53.0373 591.848 52.696C593.213 52.3547 594.579 52.184 595.944 52.184C597.992 52.184 599.528 52.696 600.552 53.72C601.747 54.744 602.685 56.024 603.368 57.56C604.051 59.096 604.563 60.7173 604.904 62.424C605.416 64.1307 605.843 65.6667 606.184 67.032C606.184 67.8853 606.099 68.6533 605.928 69.336C605.757 70.0187 605.587 70.9573 605.416 72.152C607.635 69.2507 610.109 66.3493 612.84 63.448C615.741 60.5467 617.363 58.2427 617.704 56.536C617.875 55.512 618.643 54.232 620.008 52.696C621.544 50.9893 623.336 49.368 625.384 47.832C627.432 46.1253 629.565 44.76 631.784 43.736C634.173 42.5413 636.477 41.944 638.696 41.944C642.109 41.944 644.925 42.712 647.144 44.248C649.533 45.784 651.411 47.7467 652.776 50.136C654.141 52.3547 655.08 54.8293 655.592 57.56C656.104 60.2907 656.36 62.7653 656.36 64.984C656.36 69.9333 655.677 73.688 654.312 76.248C653.117 78.6373 650.643 81.1973 646.888 83.928C645.693 84.7813 644.84 85.8907 644.328 87.256C643.816 88.4507 643.389 89.6453 643.048 90.84C642.707 91.864 642.28 92.8027 641.768 93.656C641.427 94.5093 640.744 94.936 639.72 94.936C636.989 94.936 635.027 93.3147 633.832 90.072C632.637 86.8293 631.784 83.3307 631.272 79.576C630.76 75.6507 630.333 72.0667 629.992 68.824C629.821 65.5813 629.224 63.96 628.2 63.96C628.029 63.96 627.944 64.0453 627.944 64.216C627.944 64.216 627.859 64.216 627.688 64.216C625.128 65.752 622.397 68.056 619.496 71.128C616.765 74.2 614.12 77.528 611.56 81.112C609 84.696 606.611 88.3653 604.392 92.12C602.344 95.8747 600.723 99.288 599.528 102.36C598.675 104.408 597.821 106.541 596.968 108.76C596.285 110.808 595.261 112.771 593.896 114.648C592.872 116.184 592.104 117.805 591.592 119.512C591.08 121.219 590.568 123.181 590.056 125.4C589.544 127.448 588.861 130.008 588.008 133.08C587.155 136.152 585.789 139.907 583.912 144.344C582.035 148.781 580.84 153.304 580.328 157.912C579.816 162.349 578.365 166.616 575.976 170.712C575.976 170.541 575.72 171.651 575.208 174.04C574.696 176.259 573.843 178.733 572.648 181.464C571.453 184.195 569.917 186.669 568.04 188.888C566.333 191.277 564.285 192.472 561.896 192.472C558.653 192.472 556.349 190.68 554.984 187.096C553.789 183.512 553.192 179.587 553.192 175.32C553.192 174.125 553.277 173.016 553.448 171.992C553.619 170.968 553.704 169.773 553.704 168.408C553.704 166.531 553.533 164.739 553.192 163.032C552.851 161.155 552.68 159.107 552.68 156.888C552.68 154.499 552.936 151.512 553.448 147.928C554.131 144.173 555.325 141.272 557.032 139.224C557.032 139.053 557.032 138.968 557.032 138.968C557.203 138.797 557.288 138.541 557.288 138.2C557.288 137.347 557.032 136.579 556.52 135.896C556.179 135.213 556.008 134.531 556.008 133.848C556.008 132.653 556.179 131.373 556.52 130.008C556.861 128.472 557.203 127.192 557.544 126.168L555.496 124.632ZM590.056 103.896L589.544 104.664H590.312L590.056 103.896Z" fill="#5984D6"/>
</svg>
