<svg width="30" height="30" viewBox="0 0 30 30" fill="none" xmlns="http://www.w3.org/2000/svg">
<path d="M28.2143 16.0714V13.9286C28.2143 12.8714 27.9072 12.5 26.7857 12.5H17.5V3.21428C17.5 2.15713 17.15 1.78571 16.0714 1.78571H13.9286C12.8214 1.78571 12.5 2.15713 12.5 3.21428V12.5H2.50001C1.44287 12.5 1.07144 12.85 1.07144 13.9286V16.0714C1.07144 17.1786 1.44287 17.5 2.50001 17.5H12.5V27.5C12.5 28.5786 12.8429 28.9286 13.9286 28.9286H16.0714C17.1286 28.9286 17.5 28.6214 17.5 27.5V17.5H26.7857C27.8643 17.5 28.2143 17.1571 28.2143 16.0714Z" fill="#892A5B"/>
</svg>
