<svg width="91" height="91" viewBox="0 0 91 91" fill="none" xmlns="http://www.w3.org/2000/svg">
<path d="M35.239 70.809C38.806 70.809 42.412 69.422 45.17 66.664L68.95 42.887L66.547 40.483L42.766 64.26C38.684 68.342 32.17 68.473 28.246 64.552C24.324 60.628 24.455 54.114 28.539 50.031L51.127 27.441C53.66 24.908 57.781 24.908 60.315 27.441C62.847 29.974 62.847 34.096 60.315 36.63L37.329 59.615C36.277 60.668 34.445 60.668 33.392 59.615C32.867 59.089 32.578 58.39 32.578 57.646C32.578 56.903 32.867 56.204 33.392 55.677L54 35.07L51.597 32.666L30.989 53.273C29.821 54.441 29.177 55.995 29.177 57.646C29.177 59.298 29.821 60.851 30.988 62.017C32.156 63.187 33.709 63.83 35.36 63.83C37.011 63.83 38.564 63.187 39.732 62.019L63.115 38.636L63.074 38.597C66.535 34.714 66.439 28.759 62.718 25.037C58.997 21.315 53.041 21.221 49.16 24.681L49.119 24.641L48.723 25.037L26.135 47.627C20.727 53.035 20.595 61.706 25.843 66.955C28.415 69.527 31.809 70.809 35.239 70.809Z" fill="#AE1100"/>
</svg>
