<svg width="30" height="30" viewBox="0 0 30 30" fill="none" xmlns="http://www.w3.org/2000/svg">
<path d="M15 7.5C17.0625 7.5 18.75 5.8125 18.75 3.75C18.75 1.6875 17.0625 0 15 0C12.9375 0 11.25 1.6875 11.25 3.75C11.25 5.8125 12.9375 7.5 15 7.5ZM15 11.25C12.9375 11.25 11.25 12.9375 11.25 15C11.25 17.0625 12.9375 18.75 15 18.75C17.0625 18.75 18.75 17.0625 18.75 15C18.75 12.9375 17.0625 11.25 15 11.25ZM15 22.5C12.9375 22.5 11.25 24.1875 11.25 26.25C11.25 28.3125 12.9375 30 15 30C17.0625 30 18.75 28.3125 18.75 26.25C18.75 24.1875 17.0625 22.5 15 22.5Z" fill="#892A5B"/>
</svg>
